<svg version="1.2" xmlns="http://www.w3.org/2000/svg" viewBox="0 0 213 50" width="213" height="50"><style>.a{fill:#4a4e54}.b{fill:#878787}.c{fill:#36a9e1}</style><path class="a" d="m27.3 26.2q-0.8 0-1.7-0.1-0.8-0.1-1.8-0.2-0.9-0.1-1.8-0.2-1-0.2-1.8-0.4v-3.6q1.9 0.4 3.6 0.6 0.4 0.1 0.8 0.1 0.4 0.1 0.7 0.1 0.4 0.1 0.8 0.1 0.4 0 0.8 0 1.9 0 2.7-0.5 0.2-0.1 0.4-0.3 0.2-0.2 0.3-0.4 0.1-0.2 0.1-0.4 0.1-0.2 0.1-0.5 0-1.2-1-1.7-0.9-0.5-2.6-0.9-0.4 0-0.8-0.1-0.3-0.1-0.7-0.2-0.3-0.1-0.7-0.2-0.3-0.1-0.7-0.3-0.2-0.1-0.5-0.2-0.3-0.1-0.5-0.3-0.3-0.1-0.5-0.3-0.2-0.2-0.5-0.4-0.2-0.2-0.3-0.4-0.2-0.2-0.4-0.4-0.1-0.2-0.2-0.5-0.2-0.2-0.3-0.5-0.1-0.2-0.1-0.5-0.1-0.3-0.2-0.7 0-0.3 0-0.6-0.1-0.3-0.1-0.6 0-0.3 0.1-0.6 0-0.3 0.1-0.6 0-0.3 0.1-0.6 0.1-0.3 0.3-0.6 0.1-0.3 0.3-0.5 0.1-0.3 0.3-0.5 0.2-0.2 0.4-0.4 0.3-0.2 0.5-0.4 0.3-0.2 0.6-0.4 0.2-0.2 0.6-0.3 0.3-0.1 0.6-0.3 0.3-0.1 0.6-0.2 0.4-0.1 0.8-0.1 0.4-0.1 0.8-0.2 0.4 0 0.8 0 0.4-0.1 0.8-0.1 0.7 0 1.3 0.1 0.6 0 1.3 0.1 0.8 0.1 1.6 0.2 0.8 0.2 1.8 0.4v3.6q-0.3-0.1-0.7-0.2-0.3-0.1-0.7-0.1-0.3-0.1-0.7-0.2-0.3 0-0.7-0.1-0.3 0-0.7-0.1-0.3 0-0.6 0-0.4-0.1-0.7-0.1-0.3 0-0.7 0-1.7 0-2.6 0.6-0.2 0.1-0.4 0.2-0.1 0.2-0.3 0.4-0.1 0.2-0.1 0.5-0.1 0.2-0.1 0.4 0 0.3 0.1 0.5 0 0.3 0.1 0.5 0.1 0.2 0.3 0.4 0.2 0.2 0.4 0.3 0.9 0.6 2.9 1.1 0.3 0 0.7 0.1 0.3 0.1 0.7 0.2 0.3 0.1 0.6 0.2 0.4 0.1 0.7 0.2 0.2 0.1 0.5 0.3 0.3 0.1 0.5 0.2 0.3 0.2 0.5 0.3 0.2 0.2 0.4 0.4 0.2 0.1 0.4 0.3 0.2 0.2 0.3 0.4 0.2 0.2 0.3 0.4 0.2 0.3 0.3 0.5 0.1 0.3 0.1 0.5 0.1 0.3 0.2 0.6 0 0.3 0.1 0.6 0 0.3 0 0.5 0 3-2 4.5-2 1.6-5.9 1.6z"/><path class="a" d="m37.8 6.3h14.1v3.5h-9.6v4.4h8.8v3.5h-8.8v4.6h9.9v3.5h-14.4z"/><path fill-rule="evenodd" class="a" d="m93.1 6.4q0.7-0.1 1.4-0.2 0.8-0.1 1.5-0.1 0.7-0.1 1.4-0.1 0.8 0 1.5 0 0.6 0 1.1 0 0.6 0 1.2 0.1 0.6 0 1.1 0.1 0.6 0.1 1.2 0.2 0.4 0.1 0.8 0.2 0.4 0.1 0.8 0.3 0.4 0.1 0.7 0.3 0.4 0.2 0.8 0.5 0.3 0.2 0.5 0.4 0.3 0.3 0.5 0.6 0.3 0.2 0.4 0.5 0.2 0.4 0.4 0.7 0.1 0.4 0.2 0.8 0.1 0.4 0.2 0.8 0.1 0.4 0.1 0.8 0.1 0.4 0.1 0.8 0 3.6-2.5 5.4-2.4 1.7-7.4 1.7h-0.8q-0.3 0-0.7 0v5.6h-4.5zm6.7 10.3q0.2 0 0.5 0 0.3 0 0.6 0 0.2-0.1 0.5-0.1 0.3 0 0.5-0.1 0.2 0 0.4-0.1 0.2 0 0.4-0.1 0.2-0.1 0.3-0.2 0.2-0.1 0.4-0.2 0.1-0.1 0.2-0.2 0.1-0.1 0.2-0.3 0.1-0.1 0.2-0.3 0.1-0.1 0.1-0.3 0.1-0.2 0.2-0.4 0-0.2 0-0.4 0.1-0.2 0.1-0.4 0-0.2 0-0.5 0-0.2 0-0.4 0-0.2-0.1-0.4 0-0.2 0-0.4-0.1-0.2-0.1-0.4-0.1-0.2-0.2-0.3 0-0.2-0.1-0.3-0.1-0.2-0.2-0.3-0.2-0.1-0.3-0.2-0.1-0.2-0.3-0.3-0.2 0-0.3-0.1-0.2-0.1-0.4-0.2-0.2 0-0.4-0.1-0.2 0-0.5 0-0.3-0.1-0.5-0.1-0.3 0-0.6 0-0.3 0-0.5 0-0.6 0-1.2 0-0.7 0.1-1.1 0.1v6.9q0.4 0 1 0.1 0.6 0 1.2 0z"/><path class="a" d="m120.2 9.8h-5.7v-3.5h15.9v3.5h-5.7v16h-4.5z"/><path class="a" d="m132.8 6.3h14.1v3.5h-9.6v4.4h8.8v3.5h-8.8v4.6h9.9v3.5h-14.4z"/><path class="a" d="m158.8 26.2q-5 0-7.4-2.5-2.3-2.5-2.4-7.6 0-5.2 2.4-7.7 2.3-2.5 7.1-2.5 0.9 0 2 0.1 1.1 0.1 2.6 0.3v3.7q-0.8-0.1-1.4-0.2-0.6-0.1-1-0.1l-0.9-0.1q-0.4 0-0.8 0-0.3 0-0.6 0-0.3 0-0.7 0.1-0.3 0-0.6 0.1-0.3 0-0.6 0.1-0.3 0.1-0.5 0.2-0.2 0.1-0.4 0.2-0.3 0.2-0.5 0.3-0.1 0.2-0.3 0.4-0.2 0.2-0.3 0.4-0.2 0.3-0.3 0.5-0.1 0.3-0.2 0.5-0.1 0.3-0.1 0.6-0.1 0.4-0.1 0.7-0.1 0.4-0.1 0.8 0 0.4-0.1 0.8 0 0.4 0 0.8 0 0.4 0 0.7 0.1 0.4 0.1 0.8 0 0.4 0.1 0.8 0 0.3 0.1 0.7 0.1 0.3 0.1 0.5 0.1 0.3 0.2 0.6 0.2 0.2 0.3 0.4 0.1 0.3 0.3 0.5 0.2 0.2 0.4 0.3 0.1 0.2 0.3 0.3 0.3 0.2 0.5 0.3 0.2 0.1 0.4 0.1 0.3 0.1 0.7 0.2 0.3 0.1 0.6 0.1 0.3 0 0.6 0 0.3 0.1 0.6 0.1 0.5 0 1-0.1 0.6 0 1.2-0.1 0.5 0 1.1-0.1 0.5-0.1 0.9-0.1v3.6q-1 0.2-2.1 0.3-0.3 0-0.6 0.1-0.2 0-0.5 0-0.3 0-0.6 0-0.2 0.1-0.5 0.1z"/><path class="a" d="m165.8 6.3h4.6v7.7h8.6v-7.7h4.5v19.5h-4.5v-8.2h-8.6v8.2h-4.6z"/><path class="b" d="m21.1 37.8l0.7 4.9 0.9-4.9h0.6l0.9 4.9 0.7-4.9h0.6l-0.9 6.2h-0.6l-1-4.8-1 4.8h-0.5l-1.1-6.2z"/><path class="b" d="m31.1 37.8v0.6h-2.1v2.1h1.6v0.6h-1.6v2.3h2.2v0.6h-2.9v-6.2z"/><path class="b" d="m40.6 39.4c-0.1-0.6-0.3-1.1-1-1.1q-0.2 0-0.3 0-0.2 0.1-0.3 0.2-0.1 0.1-0.2 0.3 0 0.1 0 0.3c0 1.4 2.4 1.4 2.4 3.4 0 1-0.5 1.6-1.5 1.6-1 0-1.6-0.7-1.6-1.7h0.6c0 0.7 0.4 1.1 1 1.1 0.6 0 0.9-0.3 0.9-1 0-1.4-2.4-1.6-2.4-3.3 0-0.9 0.6-1.5 1.5-1.5 0.8 0 1.4 0.6 1.5 1.7z"/><path class="b" d="m47.1 37.8v0.6h-2.1v2.1h1.6v0.6h-1.6v2.3h2.2v0.6h-2.9v-6.2z"/><path class="b" d="m52.9 37.8v0.6h-1.2v5.6h-0.7v-5.6h-1.3v-0.6z"/><path class="b" d="m56.4 37.8v4.6c0 0.6 0.2 1.1 0.9 1.1 0.7 0 0.9-0.5 0.9-1.1v-4.6h0.7v4.6c0 1-0.5 1.7-1.6 1.7-1.1 0-1.6-0.7-1.6-1.7v-4.6z"/><path fill-rule="evenodd" class="b" d="m62.1 37.8h1.4c1 0 1.7 0.7 1.7 1.7 0 1.1-0.7 1.7-1.7 1.7h-0.8v2.8h-0.6zm0.6 2.8h0.7c0.7 0 1.1-0.3 1.1-1.1 0-0.8-0.4-1.1-1.1-1.1h-0.7z"/><path class="b" d="m72.5 37.8l1 2.7 1.1-2.7h0.7l-1.4 3.6v2.6h-0.7v-2.6l-1.5-3.6z"/><path fill-rule="evenodd" class="b" d="m79.7 44.1c-1 0-1.7-0.9-1.7-3.2 0-2.3 0.7-3.2 1.7-3.2 1 0 1.7 0.9 1.7 3.2 0 2.3-0.7 3.2-1.7 3.2zm0-5.8c-0.6 0-1.1 0.5-1.1 2.6 0 2.1 0.5 2.6 1.1 2.6 0.6 0 1.1-0.5 1.1-2.6 0-2.1-0.5-2.6-1.1-2.6z"/><path class="b" d="m85.2 37.8v4.6c0 0.6 0.2 1.1 0.9 1.1 0.8 0 0.9-0.5 0.9-1.1v-4.6h0.7v4.6c0 1-0.5 1.7-1.6 1.7-1.1 0-1.5-0.7-1.5-1.7v-4.6z"/><path fill-rule="evenodd" class="b" d="m91 37.8h1.5c1 0 1.7 0.6 1.7 1.6 0 0.7-0.3 1.3-1 1.6l1 3h-0.7l-1-2.9h-0.8v2.9h-0.7zm0.7 2.7h0.6c0.9 0 1.2-0.4 1.2-1.1 0-0.6-0.3-1-1.2-1h-0.6z"/><path class="b" d="m101.6 37.8l0.7 4.9 1-4.9h0.5l0.9 4.9h0.1l0.6-4.9h0.7l-1 6.2h-0.6l-1-4.8-1 4.8h-0.5l-1-6.2z"/><path fill-rule="evenodd" class="b" d="m110.4 44.1c-1 0-1.7-0.9-1.7-3.2 0-2.3 0.7-3.2 1.7-3.2 1.1 0 1.8 0.9 1.8 3.2 0 2.3-0.7 3.2-1.8 3.2zm0-5.8c-0.6 0-1.1 0.5-1.1 2.6 0 2.1 0.5 2.6 1.1 2.6 0.6 0 1.1-0.5 1.1-2.6 0-2.1-0.5-2.6-1.1-2.6z"/><path fill-rule="evenodd" class="b" d="m115.3 37.8h1.5c1 0 1.7 0.6 1.7 1.6 0 0.7-0.3 1.3-1 1.6l1 3h-0.7l-1-2.9h-0.8v2.9h-0.7zm0.7 2.7h0.5c1 0 1.3-0.4 1.3-1 0-0.7-0.3-1.1-1.3-1.1h-0.5z"/><path class="b" d="m122.4 37.8v5.6h2v0.6h-2.7v-6.2z"/><path fill-rule="evenodd" class="b" d="m127.2 37.8h1.1c1.3 0 2.1 0.7 2.1 3.1 0 2.4-0.8 3.1-2.1 3.1h-1.1zm0.7 5.6h0.3c1 0 1.6-0.4 1.6-2.5 0-2.1-0.6-2.5-1.6-2.5h-0.3z"/><path class="a" d="m89.5 6.2v11.6q0 0.4 0 0.9-0.1 0.5-0.1 0.9-0.1 0.5-0.2 1-0.1 0.4-0.2 0.9-0.1 0.3-0.2 0.7-0.2 0.3-0.4 0.7-0.2 0.3-0.4 0.6-0.2 0.3-0.5 0.6-0.3 0.2-0.6 0.5-0.3 0.2-0.7 0.4-0.3 0.2-0.7 0.3-0.3 0.2-0.7 0.3-0.5 0.1-1 0.2-0.5 0.1-1.1 0.2-0.5 0.1-1 0.1-0.5 0-1 0-0.6 0-1.1 0-0.5 0-1-0.1-0.5-0.1-1.1-0.2-0.5-0.1-1-0.2-0.4-0.1-0.7-0.3-0.4-0.1-0.7-0.3-0.4-0.2-0.7-0.4-0.3-0.3-0.6-0.5-0.3-0.3-0.5-0.6-0.2-0.3-0.4-0.6-0.2-0.4-0.4-0.7-0.1-0.4-0.2-0.7-0.1-0.5-0.2-0.9-0.1-0.5-0.2-1 0-0.4-0.1-0.9 0-0.5 0-0.9v-1.2l1.2-3.4h3.3v4.7q0 2.3 1.1 3.4 1 1.2 3.3 1.2 2.2 0 3.2-1.1 1.1-1.2 1.1-3.5v-11.7z"/><path class="c" d="m74.5 8q0-0.2-0.1-0.3-0.1-0.2-0.3-0.3-0.1-0.2-0.3-0.3-0.1-0.1-0.3-0.1l-1.7-0.5c-0.4-0.1-0.4-0.3 0-0.5l4.7-1.5c0.5-0.2 0.7 0.1 0.6 0.5l-1.7 4.7c-0.2 0.4-0.4 0.4-0.5 0z"/><path class="a" d="m64.1 9.8v16h-4.6v-16h-5.6v-3.5h14.4v2l-3.9 1.3q-0.3 0.1-0.3 0.2z"/><path fill-rule="evenodd" class="a" d="m187.9 6.3c0.9 0 1.7 0.5 2 1.4 0.4 0.8 0.2 1.7-0.5 2.4-0.6 0.6-1.6 0.8-2.4 0.4-0.8-0.3-1.3-1.1-1.3-2q0-0.5 0.2-0.9 0.1-0.4 0.4-0.7 0.4-0.3 0.8-0.5 0.4-0.2 0.8-0.1zm0 0.3q-0.3 0-0.7 0.2-0.3 0.1-0.6 0.4-0.2 0.2-0.4 0.6-0.1 0.3-0.1 0.7c0 0.4 0.2 0.9 0.5 1.3 0.4 0.3 0.8 0.5 1.3 0.5 0.5 0 1-0.2 1.3-0.5 0.3-0.4 0.5-0.9 0.5-1.3q0-0.4-0.1-0.7-0.1-0.4-0.4-0.6-0.2-0.3-0.6-0.4-0.3-0.2-0.7-0.2zm-0.4 3.2h-0.4v-2.6h0.9c0.6 0 0.9 0.2 0.9 0.7 0 0.5-0.2 0.7-0.6 0.7l0.7 1.2h-0.4l-0.7-1.2h-0.4zm0-1.4h0.4c0.5 0 0.6-0.1 0.6-0.4 0-0.3-0.1-0.4-0.5-0.4h-0.5z"/></svg>
