<svg xmlns="http://www.w3.org/2000/svg" viewBox="0 0 784.79 182.52"><defs><style>.cls-1{fill:#4a4e54;}.cls-2{fill:#878787;}.cls-3{fill:#36a9e1;}</style></defs><title>Setup Original With Phrase</title><g id="Layer_2" data-name="Layer 2"><g id="Layer_1-2" data-name="Layer 1"><path class="cls-1" d="M32.75,100c-2.35,0-4.89-.09-7.61-.25s-5.52-.43-8.4-.79S11,98.21,8.16,97.76,2.6,96.77,0,96.12V79.32q8.76,2.07,16.62,3.16a104.31,104.31,0,0,0,14.31,1.1q8.64,0,12.6-2.38a7.77,7.77,0,0,0,3.95-7.12q0-5.47-4.32-7.91t-12.36-4a70.6,70.6,0,0,1-13.09-3.71,31.32,31.32,0,0,1-9.25-5.6,20.84,20.84,0,0,1-5.54-8.1A31.31,31.31,0,0,1,1.1,33.54,24.49,24.49,0,0,1,3.53,22.46a23.52,23.52,0,0,1,7.06-8.34,33.43,33.43,0,0,1,11.2-5.3A55.94,55.94,0,0,1,36.65,7c2,0,3.89.06,5.84.18s4,.31,6.21.55,4.57.59,7.12,1,5.38,1,8.46,1.65V27.09a106.23,106.23,0,0,0-13-2.74,85.25,85.25,0,0,0-12.42-1q-7.92,0-12.06,2.56a8.11,8.11,0,0,0-4.14,7.3A8.73,8.73,0,0,0,26.78,41q4.14,2.67,13.4,4.74a78.63,78.63,0,0,1,12.36,3.6,31.92,31.92,0,0,1,9.06,5.23A20.79,20.79,0,0,1,67.21,62a25.45,25.45,0,0,1,1.94,10.35Q69.15,86,60,93T32.75,100Z"/><path class="cls-1" d="M81.33,8.46h65.25V24.65H102.15V45.11h40.42V61.3H102.15V82.36h45.53V98.55H81.33Z"/><path class="cls-1" d="M336.51,9.07a213.7,213.7,0,0,1,26.91-1.83,101.56,101.56,0,0,1,21,1.89A39.17,39.17,0,0,1,398.85,15a23.84,23.84,0,0,1,8.28,10.17,37.11,37.11,0,0,1,2.68,14.73q0,16.68-11.27,24.65t-34.39,8h-3.41c-1.14,0-2.27,0-3.41-.12V98.55H336.51Zm30.93,47.24a49.9,49.9,0,0,0,10-.86,16.38,16.38,0,0,0,6.58-2.73,10.49,10.49,0,0,0,3.59-5.06,24,24,0,0,0,1.09-7.79,24.89,24.89,0,0,0-1-7.67,10.61,10.61,0,0,0-3.47-5.11,15.3,15.3,0,0,0-6.39-2.8,48.13,48.13,0,0,0-9.93-.86c-1.7,0-3.57.09-5.6.25s-3.69.32-5,.48V55.58c1.22.16,2.78.32,4.69.48S365.73,56.31,367.44,56.31Z"/><path class="cls-1" d="M461.79,24.77H435.61V8.46H509V24.77H482.61V98.55H461.79Z"/><path class="cls-1" d="M520,8.46h65.26V24.65H540.81V45.11h40.42V61.3H540.81V82.36h45.53V98.55H520Z"/><path class="cls-1" d="M640,100Q617,100,606,88.63t-11.08-35q0-23.75,10.83-35.19T638.57,7c2.85,0,6,.14,9.38.42s7.3.76,11.69,1.4V25.5q-3.54-.36-6.21-.66c-1.79-.21-3.41-.37-4.87-.49l-4-.31c-1.18-.08-2.33-.12-3.47-.12a41.47,41.47,0,0,0-11.87,1.46,16.1,16.1,0,0,0-7.73,4.87,20.28,20.28,0,0,0-4.14,9.13,70.17,70.17,0,0,0-1.22,14.25,64.4,64.4,0,0,0,1.28,14,21,21,0,0,0,4.14,9,15.66,15.66,0,0,0,7.55,4.87A39.2,39.2,0,0,0,640.64,83c1.3,0,2.82,0,4.57-.12s3.49-.23,5.23-.43,3.43-.4,5.06-.61,3-.42,4.14-.67V97.7q-4.38,1-9.62,1.64A78.22,78.22,0,0,1,640,100Z"/><path class="cls-1" d="M672.54,8.46h20.82V44.25h40.06V8.46h20.69V98.55H733.42V60.45H693.36v38.1H672.54Z"/><path class="cls-2" d="M4,153.69,7.35,175.9h.08l4.25-22.21H14.2l4.42,22.21h.07l3.15-22.21h2.84l-4.57,28.44h-2.6L13,159.79h-.08L8.45,182.13H5.85L1.13,153.69Z"/><path class="cls-2" d="M50.55,153.69v2.6H40.63V166H48v2.6H40.63v10.95H51v2.6H37.56V153.69Z"/><path class="cls-2" d="M94,161c-.24-2.92-1.42-5.12-4.37-5.12a3.63,3.63,0,0,0-3.9,3.74c0,6.42,11.42,6.5,11.42,15.63,0,4.53-2.6,7.25-7.29,7.25-4.45,0-7.13-3.27-7.21-8h2.84c.08,3.34,1.65,5.43,4.69,5.43,2.56,0,4.21-1.65,4.21-4.69,0-6.46-11.42-7.2-11.42-15.32,0-4,2.76-6.61,6.85-6.61s6.78,2.75,7,7.72Z"/><path class="cls-2" d="M124.27,153.69v2.6h-9.92V166h7.32v2.6h-7.32v10.95h10.39v2.6H111.27V153.69Z"/><path class="cls-2" d="M151.17,153.69v2.6h-5.83v25.84h-3.07V156.29h-5.83v-2.6Z"/><path class="cls-2" d="M167.15,153.69v20.87c0,2.88.83,5.36,4.18,5.36s4.17-2.48,4.17-5.36V153.69h3.08v20.95c0,4.57-2.13,7.88-7.25,7.88s-7.25-3.31-7.25-7.88V153.69Z"/><path class="cls-2" d="M193.38,153.69h6.7c4.56,0,7.56,3.07,7.56,7.8s-3,7.8-7.56,7.8h-3.63v12.84h-3.07Zm3.07,13h3.23c3.07,0,4.89-1.66,4.89-5.2s-1.82-5.2-4.89-5.2h-3.23Z"/><path class="cls-2" d="M241.34,153.69l4.89,12.45L251,153.69h3.31l-6.54,16.38v12.06h-3.07V170.07L238,153.69Z"/><path class="cls-2" d="M274.74,182.52c-4.81,0-8-4-8-14.61s3.23-14.61,8-14.61,8,4,8,14.61S279.54,182.52,274.74,182.52Zm0-26.62c-2.76,0-5,2.36-5,12s2.2,12,5,12,5-2.36,5-12S277.5,155.9,274.74,155.9Z"/><path class="cls-2" d="M300.26,153.69v20.87c0,2.88.82,5.36,4.17,5.36s4.18-2.48,4.18-5.36V153.69h3.07v20.95c0,4.57-2.13,7.88-7.25,7.88s-7.24-3.31-7.24-7.88V153.69Z"/><path class="cls-2" d="M326.88,153.69h6.85c4.57,0,7.8,2.68,7.8,7.36,0,3.2-1.42,5.87-4.57,7l4.81,14.1h-3.23L334,168.66l-4,.15v13.32h-3.07ZM330,166.14h2.68c4.41,0,5.83-1.74,5.83-4.93s-1.42-4.92-5.83-4.92H330Z"/><path class="cls-2" d="M375.79,153.69l3.39,22.21h.07l4.26-22.21H386l4.41,22.21h.08l3.15-22.21h2.83l-4.56,28.44h-2.6l-4.49-22.34h-.08l-4.49,22.34h-2.6L373,153.69Z"/><path class="cls-2" d="M416.63,182.52c-4.81,0-8-4-8-14.61s3.23-14.61,8-14.61,8,4,8,14.61S421.43,182.52,416.63,182.52Zm0-26.62c-2.76,0-5,2.36-5,12s2.21,12,5,12,5-2.36,5-12S419.38,155.9,416.63,155.9Z"/><path class="cls-2" d="M439.07,153.69h6.86c4.56,0,7.79,2.68,7.79,7.36,0,3.2-1.41,5.87-4.57,7l4.81,14.1h-3.23l-4.57-13.47-4,.15v13.32h-3.07Zm3.07,12.45h2.68c4.41,0,5.83-1.74,5.83-4.93s-1.42-4.92-5.83-4.92h-2.68Z"/><path class="cls-2" d="M471.84,153.69v25.84h9.21v2.6H468.76V153.69Z"/><path class="cls-2" d="M494.09,153.69h5.27c6,0,9.61,3.31,9.61,14.22s-3.62,14.22-9.61,14.22h-5.27Zm3.07,25.84h1.65c4.49,0,7.09-1.89,7.09-11.62s-2.6-11.62-7.09-11.62h-1.65Z"/><path class="cls-1" d="M299.14,8.34V61.91q0,10.83-4.81,16t-15.16,5.17q-10.47,0-15.28-5.23t-4.81-16V40.4H244l-5.64,15.79v5.23a60.4,60.4,0,0,0,2.13,17,27.32,27.32,0,0,0,7,11.93,29.48,29.48,0,0,0,12.59,7.06,68.15,68.15,0,0,0,19.12,2.31,67.38,67.38,0,0,0,19.05-2.31,29.47,29.47,0,0,0,12.54-7.06,27.31,27.31,0,0,0,6.94-11.93,60.4,60.4,0,0,0,2.13-17V8.34Z"/><path class="cls-3" d="M250.76,16.51a7.24,7.24,0,0,0-4.71-4.81l-7.61-2c-2.08-.55-2.11-1.56-.07-2.24L260.11.2c2-.68,3.12.42,2.4,2.45l-7.69,21.54c-.73,2-1.73,2-2.24-.12Z"/><path class="cls-1" d="M204.12,23.75l17.9-6V8.46H155.51V24.77h26.18V98.55h20.82V24.77h.08C202.71,24.41,203.21,24.05,204.12,23.75Z"/><path class="cls-1" d="M774.48,8.46a10.2,10.2,0,1,1-10.37,10.17A10.18,10.18,0,0,1,774.48,8.46Zm0,1.65a8.3,8.3,0,0,0-8.39,8.52,8.36,8.36,0,1,0,16.72,0A8.29,8.29,0,0,0,774.48,10.11Zm-2.17,14.43h-1.82V12.78H775c2.8,0,4.18,1,4.18,3.35,0,2.12-1.32,3-3.08,3.24l3.35,5.17h-2l-3.13-5.11h-2Zm0-6.59h2.14c2.2,0,2.91-.64,2.91-1.93,0-1.13-.55-1.76-2.61-1.76h-2.44Z"/></g></g></svg>
