<svg version="1.2" xmlns="http://www.w3.org/2000/svg" viewBox="0 0 785 184" width="213" height="50"><style>.a{fill:#4a4e54}.b{fill:#878787}.c{fill:#36a9e1}</style><path class="a" d="m32.8 101q-3.6 0-7.7-0.3-4-0.2-8.4-0.7-4.3-0.6-8.5-1.2-4.3-0.7-8.2-1.7v-16.8q8.8 2.1 16.6 3.2 1.8 0.2 3.6 0.4 1.8 0.2 3.6 0.4 1.7 0.1 3.5 0.2 1.8 0.1 3.6 0.1 8.7 0 12.6-2.4 1-0.5 1.7-1.3 0.8-0.8 1.3-1.7 0.5-0.9 0.8-2 0.2-1 0.2-2.1 0-5.5-4.3-7.9-4.4-2.5-12.4-4-1.7-0.3-3.3-0.7-1.7-0.4-3.3-0.9-1.7-0.4-3.3-1-1.6-0.5-3.2-1.1-1.3-0.5-2.5-1.1-1.2-0.6-2.4-1.3-1.1-0.7-2.2-1.5-1.1-0.8-2.1-1.7-1-0.9-1.8-1.8-0.8-0.9-1.5-2-0.7-1-1.3-2.1-0.5-1.1-1-2.2-0.5-1.4-0.8-2.8-0.4-1.4-0.6-2.8-0.2-1.4-0.3-2.8-0.1-1.4-0.1-2.9 0-1.4 0.1-2.8 0.2-1.4 0.5-2.8 0.3-1.4 0.7-2.8 0.5-1.3 1.1-2.6 0.7-1.3 1.4-2.4 0.8-1.2 1.7-2.2 0.9-1.1 1.9-2 1-1 2.1-1.8 1.3-0.9 2.6-1.7 1.3-0.8 2.7-1.5 1.5-0.6 2.9-1.2 1.5-0.5 3-0.9 1.8-0.5 3.7-0.8 1.8-0.4 3.7-0.6 1.8-0.2 3.7-0.3 1.9-0.1 3.7-0.1c2 0 3.9 0.1 5.9 0.2q2.9 0.2 6.2 0.5c2.2 0.3 4.6 0.6 7.1 1 2.6 0.4 5.4 1 8.5 1.7v16.7q-1.6-0.5-3.2-0.8-1.7-0.4-3.3-0.8-1.6-0.3-3.2-0.6-1.7-0.3-3.3-0.6-1.6-0.2-3.1-0.4-1.6-0.2-3.1-0.3-1.6-0.1-3.1-0.2-1.6 0-3.1 0-8 0-12.1 2.5-1 0.6-1.8 1.3-0.7 0.8-1.3 1.8-0.5 0.9-0.8 2-0.3 1.1-0.2 2.2-0.1 1.2 0.2 2.3 0.2 1.1 0.8 2.2 0.5 1 1.3 1.8 0.8 0.9 1.8 1.5 4.1 2.7 13.4 4.7 1.6 0.4 3.1 0.7 1.6 0.4 3.1 0.9 1.6 0.4 3.1 1 1.5 0.5 3 1 1.3 0.5 2.5 1.1 1.1 0.5 2.3 1.2 1.1 0.6 2.2 1.4 1.1 0.7 2.1 1.6 0.9 0.7 1.7 1.6 0.8 0.8 1.5 1.8 0.7 0.9 1.3 1.9 0.6 1 1.1 2.1 0.5 1.2 0.9 2.5 0.4 1.3 0.6 2.6 0.3 1.3 0.4 2.6 0.1 1.3 0 2.6 0.1 13.7-9.1 20.7-9.2 7-27.3 7z"/><path class="a" d="m81.3 9.5h65.3v16.1h-44.4v20.5h40.4v16.2h-40.4v21.1h45.5v16.1h-66.4z"/><path fill-rule="evenodd" class="a" d="m336.5 10.1q3.4-0.5 6.7-0.8 3.4-0.3 6.7-0.6 3.4-0.2 6.8-0.3 3.3-0.1 6.7-0.2 2.7 0 5.3 0.1 2.6 0.1 5.3 0.3 2.6 0.3 5.2 0.6 2.6 0.4 5.2 0.9 1.9 0.4 3.8 0.9 1.9 0.6 3.7 1.3 1.8 0.8 3.6 1.7 1.7 0.9 3.4 2 1.3 1 2.5 2.1 1.3 1.1 2.3 2.4 1.1 1.3 1.9 2.7 0.9 1.4 1.5 3 0.7 1.7 1.3 3.5 0.5 1.8 0.8 3.7 0.4 1.9 0.5 3.7 0.2 1.9 0.1 3.8 0 16.7-11.3 24.7-11.2 7.9-34.3 8h-3.5c-1.1 0-2.2 0-3.4-0.2v26.1h-20.8zm30.9 47.3q1.3 0 2.6 0 1.2-0.1 2.5-0.2 1.2-0.1 2.5-0.3 1.2-0.1 2.4-0.4 0.9-0.1 1.8-0.4 0.9-0.2 1.7-0.6 0.8-0.3 1.6-0.8 0.8-0.4 1.5-0.9 0.6-0.5 1.2-1 0.5-0.6 1-1.3 0.5-0.6 0.8-1.3 0.4-0.7 0.6-1.5 0.3-0.9 0.5-1.9 0.2-0.9 0.4-1.9 0.1-1 0.2-2 0-1 0-1.9 0-1 0-2-0.1-1-0.2-1.9-0.1-1-0.3-1.9-0.2-1-0.5-1.9-0.2-0.8-0.6-1.5-0.3-0.7-0.8-1.3-0.4-0.7-0.9-1.3-0.6-0.5-1.2-1-0.7-0.6-1.4-1-0.8-0.4-1.6-0.8-0.8-0.4-1.7-0.6-0.8-0.3-1.7-0.4-1.2-0.3-2.4-0.4-1.3-0.2-2.5-0.3-1.2-0.1-2.5-0.2-1.2 0-2.5 0-2.5 0-5.6 0.3-3 0.2-5 0.4v31.5q1.8 0.2 4.7 0.4 2.9 0.3 5.4 0.3z"/><path class="a" d="m461.8 25.8h-26.2v-16.3h73.4v16.3h-26.4v73.8l-20.8-0.1z"/><path class="a" d="m520 9.5h65.3v16.1h-44.5v20.5h40.4v16.2h-40.4v21.1h45.5v16.1h-66.3z"/><path class="a" d="m640 101q-23 0-34-11.4-11-11.3-11.1-35 0-23.7 10.8-35.2 10.9-11.4 32.9-11.4c2.8 0 6 0.1 9.4 0.4 3.3 0.3 7.3 0.8 11.6 1.4v16.7q-3.5-0.4-6.2-0.7-2.7-0.3-4.8-0.4l-4-0.4q-1.8-0.1-3.5-0.1-1.5 0-3 0.1-1.5 0-3 0.2-1.5 0.2-3 0.5-1.4 0.3-2.9 0.7-1.1 0.3-2.2 0.8-1 0.4-2 1.1-1 0.6-1.9 1.3-0.8 0.8-1.6 1.7-0.8 0.9-1.5 2-0.6 1.1-1.2 2.3-0.5 1.1-0.9 2.3-0.3 1.2-0.5 2.5-0.4 1.7-0.6 3.5-0.3 1.8-0.4 3.6-0.2 1.8-0.2 3.5-0.1 1.8-0.1 3.6 0 1.8 0.1 3.6 0 1.7 0.2 3.5 0.1 1.7 0.4 3.5 0.3 1.7 0.6 3.4 0.3 1.3 0.6 2.4 0.4 1.2 0.9 2.4 0.6 1.1 1.2 2.2 0.7 1 1.4 2 0.8 0.9 1.7 1.6 0.8 0.8 1.8 1.4 0.9 0.6 2 1.1 1 0.5 2.1 0.8 1.4 0.4 2.8 0.7 1.5 0.3 2.9 0.5 1.5 0.2 2.9 0.2 1.5 0.1 2.9 0.1c1.3 0 2.9 0 4.6-0.1 1.8-0.1 3.5-0.3 5.2-0.5q2.7-0.2 5.1-0.6 2.4-0.3 4.1-0.6v16.5q-4.3 1-9.6 1.6-1.2 0.2-2.5 0.3-1.2 0.1-2.5 0.2-1.2 0.1-2.5 0.2-1.2 0-2.5 0z"/><path class="a" d="m672.5 9.5h20.9v35.8h40v-35.8h20.7v90.1h-20.7v-38.1h-40v38.1h-20.9z"/><path class="b" d="m4 154.7l3.3 22.2h0.1l4.3-22.2h2.5l4.4 22.2h0.1l3.1-22.2h2.9l-4.6 28.4h-2.6l-4.5-22.3h-0.1l-4.5 22.3h-2.6l-4.7-28.4z"/><path class="b" d="m50.5 154.7v2.6h-9.9v9.7h7.4v2.6h-7.4v10.9h10.4v2.6h-13.4v-28.4z"/><path class="b" d="m94 162c-0.2-2.9-1.4-5.1-4.4-5.1q-0.7-0.1-1.5 0.2-0.7 0.2-1.3 0.8-0.5 0.5-0.8 1.2-0.3 0.7-0.3 1.5c0 6.4 11.4 6.5 11.4 15.7 0 4.5-2.6 7.2-7.2 7.2-4.5 0-7.2-3.3-7.3-8h2.9c0.1 3.3 1.6 5.4 4.7 5.4 2.5 0 4.2-1.6 4.2-4.7 0-6.4-11.4-7.2-11.4-15.3 0-4 2.7-6.6 6.8-6.6 4.1 0 6.8 2.8 7 7.7z"/><path class="b" d="m124.3 154.7v2.6h-10v9.7h7.4v2.6h-7.4v10.9h10.4v2.6h-13.4v-28.4z"/><path class="b" d="m151.2 154.7v2.6h-5.9v25.8h-3v-25.8h-5.9v-2.6z"/><path class="b" d="m167.2 154.7v20.9c0 2.8 0.8 5.3 4.1 5.3 3.4 0 4.2-2.5 4.2-5.3v-20.9h3.1v20.9c0 4.6-2.1 7.9-7.3 7.9-5.1 0-7.2-3.3-7.2-7.9v-20.9z"/><path fill-rule="evenodd" class="b" d="m193.4 154.7h6.7c4.5 0 7.5 3.1 7.5 7.8 0 4.7-3 7.8-7.5 7.8h-3.7v12.8h-3zm3 13h3.3c3 0 4.9-1.6 4.9-5.2 0-3.5-1.9-5.2-4.9-5.2h-3.3z"/><path class="b" d="m241.3 154.7l4.9 12.4 4.8-12.4h3.3l-6.5 16.4v12h-3.1v-12l-6.7-16.4z"/><path fill-rule="evenodd" class="b" d="m274.7 183.5c-4.8 0-8-4-8-14.6 0-10.6 3.3-14.6 8-14.6 4.8 0 8 4 8 14.6 0 10.6-3.2 14.6-8 14.6zm0-26.6c-2.7 0-5 2.4-5 12 0 9.6 2.2 12 5 12 2.8 0 5-2.4 5-12 0-9.6-2.2-12-5-12z"/><path class="b" d="m300.3 154.7v20.9c0 2.8 0.8 5.3 4.1 5.3 3.4 0 4.2-2.5 4.2-5.3v-20.9h3.1v20.9c0 4.6-2.1 7.9-7.3 7.9-5.1 0-7.2-3.3-7.2-7.9v-20.9z"/><path fill-rule="evenodd" class="b" d="m326.9 154.7h6.8c4.6 0 7.8 2.7 7.8 7.4 0 3.2-1.4 5.8-4.5 7l4.8 14.1h-3.3l-4.5-13.5-4 0.1v13.3h-3.1zm3.2 12.5h2.6c4.4 0 5.9-1.8 5.9-5 0-3.1-1.5-4.9-5.9-4.9h-2.6z"/><path class="b" d="m375.8 154.7l3.4 22.2 4.3-22.2h2.5l4.4 22.2h0.1l3.1-22.2h2.9l-4.6 28.4h-2.6l-4.5-22.3h-0.1l-4.5 22.3h-2.6l-4.6-28.4z"/><path fill-rule="evenodd" class="b" d="m416.6 183.5c-4.8 0-8-4-8-14.6 0-10.6 3.3-14.6 8-14.6 4.8 0 8 4 8 14.6 0 10.6-3.2 14.6-8 14.6zm0-26.6c-2.7 0-5 2.4-5 12 0 9.6 2.2 12 5 12 2.8 0 5-2.4 5-12 0-9.6-2.2-12-5-12z"/><path fill-rule="evenodd" class="b" d="m439.1 154.7h6.8c4.6 0 7.8 2.7 7.8 7.4 0 3.2-1.4 5.8-4.5 7l4.8 14.1h-3.3l-4.5-13.5-4 0.1v13.4h-3.1zm3.1 12.4h2.6c4.5 0 5.9-1.7 5.9-4.9 0-3.2-1.5-4.9-5.9-4.9h-2.6z"/><path class="b" d="m471.8 154.7v25.8h9.2v2.6h-12.2v-28.4z"/><path fill-rule="evenodd" class="b" d="m494.1 154.7h5.3c6 0 9.6 3.3 9.6 14.2 0 10.9-3.7 14.2-9.6 14.2h-5.3zm3.1 25.9h1.6c4.5 0 7.1-1.9 7.1-11.6 0-9.8-2.6-11.7-7.1-11.7h-1.6z"/><path class="a" d="m319.9 9.3v53.1q0 2.2-0.1 4.3-0.1 2.2-0.4 4.3-0.3 2.1-0.7 4.2-0.4 2.1-1 4.2-0.4 1.7-1.1 3.3-0.7 1.6-1.6 3.1-0.9 1.5-1.9 2.9-1.1 1.4-2.3 2.6-1.3 1.3-2.8 2.4-1.5 1.1-3 2-1.6 0.8-3.3 1.5-1.7 0.7-3.4 1.2-2.4 0.6-4.7 1.1-2.4 0.5-4.8 0.7-2.4 0.3-4.8 0.5-2.4 0.1-4.8 0-2.4 0.1-4.8 0-2.4-0.2-4.8-0.5-2.4-0.2-4.8-0.7-2.4-0.5-4.7-1.1-1.8-0.5-3.5-1.2-1.7-0.6-3.3-1.5-1.5-0.9-3-2-1.5-1.1-2.8-2.4-1.2-1.2-2.3-2.6-1.1-1.4-2-2.9-0.9-1.5-1.5-3.1-0.7-1.6-1.2-3.3-0.6-2.1-1-4.2-0.4-2.1-0.7-4.2-0.2-2.1-0.4-4.3-0.1-2.1 0-4.3v-5.2l5.6-15.8h15.1v21.4q0 10.8 4.8 16 4.8 5.3 15.3 5.3 10.3 0 15.1-5.2 4.8-5.2 4.8-16v-53.6z"/><path class="c" d="m250.8 17.5q-0.3-0.8-0.7-1.6-0.5-0.7-1.1-1.4-0.6-0.6-1.4-1.1-0.7-0.4-1.6-0.7l-7.6-2c-2-0.5-2.1-1.6 0-2.2l21.7-7.3c2-0.7 3.1 0.4 2.4 2.4l-7.7 21.6c-0.7 2-1.7 2-2.2-0.1z"/><path class="a" d="m202.6 25.8h-0.1v73.8l-20.8-0.1v-73.7h-26.2v-16.3h66.5v9.3l-17.9 6c-0.9 0.3-1.4 0.6-1.5 1z"/><path fill-rule="evenodd" class="a" d="m774.5 9.5c4.1 0 7.8 2.6 9.3 6.4 1.5 3.8 0.6 8.2-2.3 11-3 2.9-7.4 3.8-11.2 2.2-3.7-1.6-6.2-5.4-6.2-9.5 0-1.3 0.3-2.7 0.8-3.9 0.5-1.3 1.3-2.4 2.3-3.3 0.9-1 2.1-1.7 3.3-2.2 1.3-0.5 2.6-0.8 4-0.7zm0 1.6c-1.1 0-2.2 0.2-3.3 0.6-1 0.5-1.9 1.1-2.7 1.9-0.8 0.8-1.4 1.7-1.8 2.8-0.4 1-0.6 2.1-0.6 3.2 0 2.2 0.9 4.4 2.4 5.9 1.6 1.6 3.7 2.5 6 2.5 2.2 0 4.3-0.9 5.9-2.5 1.5-1.5 2.4-3.7 2.4-5.9 0-1.1-0.2-2.2-0.6-3.2-0.4-1.1-1-2-1.7-2.8-0.8-0.8-1.8-1.4-2.8-1.8-1-0.5-2.1-0.7-3.2-0.7zm-2.2 14.4h-1.8v-11.7h4.5c2.8 0 4.2 1 4.2 3.3 0 2.1-1.3 3-3.1 3.3l3.3 5.1h-2l-3.1-5.1h-2zm0-6.6h2.2c2.2 0 2.9-0.6 2.9-1.9 0-1.1-0.6-1.8-2.6-1.8h-2.5z"/></svg>
